<?xml version="1.0" encoding="utf-8"?>
<!-- Generator: Adobe Illustrator 20.1.0, SVG Export Plug-In . SVG Version: 6.00 Build 0)  -->
<svg version="1.1" id="Ebene_1" xmlns="http://www.w3.org/2000/svg" xmlns:xlink="http://www.w3.org/1999/xlink" x="0px" y="0px"
	 viewBox="0 0 595.3 841.9" style="enable-background:new 0 0 595.3 841.9;" xml:space="preserve">
<style type="text/css">
	.st0{fill:#936037;}
</style>
<g>
	<path class="st0" d="M328.1,619.8c0,41.3-10,83.5-25.1,124.8c-11.7,32.1-26.6,62.7-44.5,91.9c-4.3,7-4.3,7-10,1.4
		c-24.4-24.3-48.8-48.6-73.2-72.8c-3.9-3.9-7.8-7.7-11.9-11.4c-2.3-2.1-2.2-3.6-0.3-6.1c27.4-36.5,43.6-77.5,48.1-123
		c2.3-23.9,2.7-47.8-4.5-71.1c-7.7-25-25-41.7-47.4-53.8c-16.6-8.9-34.4-14.8-51.5-22.5c-13.3-6-26.4-12.5-35.3-24.7
		c-10.6-14.5-12.4-30.7-7.6-47.5c4-13.9,17.3-22.4,33.6-23.1c22.9-1,44.1,5.6,64.6,14.9c53.3,24.2,97.8,59.5,131.8,107.4
		c18.9,26.6,30.1,56.2,32.2,89.1C327.7,601,327.8,608.9,328.1,619.8z"/>
</g>
</svg>
