<?xml version="1.0" encoding="utf-8"?>
<!-- Generator: Adobe Illustrator 20.1.0, SVG Export Plug-In . SVG Version: 6.00 Build 0)  -->
<svg version="1.1" id="Abgerundetes_Rechteck_1__x2B__Form_2_2_"
	 xmlns="http://www.w3.org/2000/svg" xmlns:xlink="http://www.w3.org/1999/xlink" x="0px" y="0px" viewBox="0 0 415 409"
	 style="enable-background:new 0 0 415 409;" xml:space="preserve">
<style type="text/css">
	.st0{enable-background:new    ;}
	.st1{clip-path:url(#SVGID_2_);}
	.st2{fill:#595959;}
	.st3{fill:#3E3E3E;}
</style>
<defs>
	<path id="SVGID_1_" class="st0" d="M405.3,106.1c14.5-14.5,12.6-39.9-4.3-56.8l-35.2-35.2c-16.9-16.9-42.3-18.8-56.8-4.3l-14,13.9
		C267.5,9.8,236.4,2,203.5,2C91.1,2,0,93.1,0,205.5S91.1,409,203.5,409S407,317.9,407,205.5c0-29.7-6.4-57.9-17.8-83.4L405.3,106.1z
		"/>
</defs>
<clipPath id="SVGID_2_">
	<use xlink:href="#SVGID_1_"  style="overflow:visible;"/>
</clipPath>
<g class="st1">
	<path class="st2" d="M0,386C0,259.2,0,132.3-0.1,5.5c0-3.7,0.8-4.6,4.6-4.6c135.3,0.1,270.7,0.1,406,0c3.7,0,4.6,0.8,4.6,4.6
		C415,45.3,415,85.2,415,125c-6.8-0.1-13.8,0.7-20.5-0.4c-30.6-5.3-56.2-19.3-74.5-45.1c-10.4-14.6-17.7-30.9-23.8-47.7
		c-0.4-1.1-0.4-2.5-2-3.3c-0.4,7.7,0.1,14.9,0.9,22.2c3.8,35.7,21.4,62.8,51.8,81.1c9.4,5.7,12.5,11.2,11.6,22.4
		c-2.2,25.7-6.2,50.9-14.4,75.4c-12.6,37.8-32.6,70.7-63.8,96.1c-42.5,34.6-90.7,43.4-143.4,31c-41.4-9.8-78.1-29.3-112.1-54.4
		c-6.3-4.6-7-4.4-8.5,3.4c-3.5,18.2-7,36.3-10.7,54.5C3.8,368.8,2.8,377.6,0,386z"/>
	<path class="st3" d="M0,386c2.8-8.4,3.8-17.2,5.6-25.9c3.7-18.1,7.1-36.3,10.7-54.5c1.5-7.8,2.2-8,8.5-3.4
		c34,25.1,70.7,44.7,112.1,54.4c52.7,12.4,100.9,3.6,143.4-31c31.2-25.4,51.2-58.4,63.8-96.1c8.2-24.5,12.3-49.6,14.4-75.4
		c1-11.3-2.2-16.7-11.6-22.4c-30.4-18.3-48-45.4-51.8-81.1c-0.8-7.3-1.3-14.5-0.9-22.2c1.7,0.8,1.6,2.2,2,3.3
		c6.1,16.8,13.4,33.1,23.8,47.7c18.3,25.7,43.9,39.8,74.5,45.1c6.6,1.1,13.6,0.3,20.5,0.4c0,93.7,0,187.3,0.1,281
		c0,3.4-0.7,4.1-4.1,4.1c-135.7-0.1-271.3-0.1-407,0c-3.4,0-4.3-0.6-4.1-4.1C0.3,399.3,0,392.7,0,386z"/>
</g>
</svg>
