<?xml version="1.0" encoding="utf-8"?>
<!-- Generator: Adobe Illustrator 20.1.0, SVG Export Plug-In . SVG Version: 6.00 Build 0)  -->
<svg version="1.1" id="Ebene_1" xmlns="http://www.w3.org/2000/svg" xmlns:xlink="http://www.w3.org/1999/xlink" x="0px" y="0px"
	 viewBox="0 0 595.3 841.9" style="enable-background:new 0 0 595.3 841.9;" xml:space="preserve">
<style type="text/css">
	.st0{fill:#4A8CCA;}
	.st1{fill:#FEFEFE;}
	.st2{fill:#E52521;}
	.st3{fill:#CBA675;}
	.st4{fill:#CCA776;}
</style>
<g>
	<path class="st0" d="M341.5,526.4c8,41.1,16,82.3,24,123.4c2.5,12.7,4.8,25.5,7.5,38.2c0.9,4.4,0.1,5.6-4.6,5.6
		c-29.8-0.2-59.6-0.1-89.4-0.1c-43.3,0-86.6,0-129.9,0c-6.3,0-6.2,0-4.9-6.2c11.1-54.6,22.1-109.2,33.2-163.8
		c0.9,1.2,1.8,2.3,2.7,3.6c25.6,37.7,51.2,75.5,76.9,113.2c1.1,1.6,1.8,3.5,3.9,4.7c11.2-16.6,22.4-33.1,33.7-49.6
		C310.2,572.3,325.8,549.3,341.5,526.4z"/>
	<path class="st1" d="M341.5,526.4c-15.7,23-31.3,45.9-47,68.9c-11.2,16.5-22.4,33-33.7,49.6c-2.1-1.1-2.8-3.1-3.9-4.7
		c-25.6-37.7-51.2-75.5-76.9-113.2c-0.8-1.2-1.8-2.4-2.7-3.6c-7-9.2-7.2-20.5-9.7-31.1c-8.3-35.8-16.2-71.6-24.2-107.4
		c-0.2-0.8-0.1-1.6-0.2-2.4c76.8,0,153.5,0,230.3,0c-2.7,14.7-5.3,29.3-8.1,44c-5.4,28.4-11.1,56.7-16.4,85.1
		C348,517.5,343.9,521.4,341.5,526.4z M259.2,392.5c-32.6,0-65.3,0.1-97.9-0.1c-4.2,0-5.8,0.4-4.6,5.4c8,34.5,15.7,69.1,23.3,103.7
		c0.8,3.7,2.1,5.1,6.1,5.1c49.6-0.1,99.3-0.1,148.9,0c3.6,0,5.2-0.9,5.9-4.6c6.6-34.8,13.3-69.6,20.2-104.4c0.8-4.2,0-5.2-4.4-5.2
		C324.1,392.6,291.6,392.5,259.2,392.5z"/>
	<path class="st2" d="M373.6,382.4c-76.8,0-153.5,0-230.3,0c0-0.3,0.1-0.7,0.1-1c10.1-12.2,20.1-24.4,30.2-36.7
		c26-31.6,52-63.2,77.9-94.9c7.1-8.7,6.9-8.7,14.1,0c25.9,31.7,51.9,63.3,77.9,94.9c10,12.2,20.1,24.4,30.2,36.7
		C373.5,381.8,373.6,382.1,373.6,382.4z"/>
	<path class="st3" d="M173.6,344.8c-10.1,12.2-20.1,24.4-30.2,36.7c-1-16.8-0.2-33.6-0.4-50.4c0-1.5,0-2.9,0-5.5
		C153.7,332.3,163.6,338.6,173.6,344.8z"/>
	<path class="st3" d="M373.5,381.4c-10.1-12.2-20.1-24.4-30.2-36.7c9.8-6.2,19.7-12.3,29.3-18.4c1.4,0.5,1.2,1.4,1.2,2.2
		c0,16.6,0,33.3,0,49.9C373.9,379.5,373.7,380.5,373.5,381.4z"/>
	<path class="st4" d="M259.2,392.5c32.5,0,64.9,0.1,97.4-0.1c4.4,0,5.2,1,4.4,5.2c-6.9,34.8-13.6,69.5-20.2,104.4
		c-0.7,3.7-2.3,4.6-5.9,4.6c-49.6-0.1-99.3-0.1-148.9,0c-4,0-5.3-1.3-6.1-5.1c-7.6-34.6-15.3-69.2-23.3-103.7
		c-1.2-5,0.4-5.4,4.6-5.4C193.9,392.5,226.5,392.5,259.2,392.5z"/>
</g>
</svg>
