<?xml version="1.0" encoding="utf-8"?>
<!-- Generator: Adobe Illustrator 20.1.0, SVG Export Plug-In . SVG Version: 6.00 Build 0)  -->
<svg version="1.1" id="Ebene_1" xmlns="http://www.w3.org/2000/svg" xmlns:xlink="http://www.w3.org/1999/xlink" x="0px" y="0px"
	 viewBox="0 0 595.3 841.9" style="enable-background:new 0 0 595.3 841.9;" xml:space="preserve">
<style type="text/css">
	.st0{fill:#FFFFFF;}
	.st1{fill:#CDA877;}
</style>
<g>
	<path class="st0" d="M486.3,464.8c1.2,5.6,2,11.3,2.2,17.1c0.4,13.3-2,26.2-7.5,38.3c-2.4,5.2-3.9,10.6-5.1,16
		c-10,42.4-20,84.9-30,127.3c-0.1,0.3-0.2,0.6-0.3,0.9c-0.7-0.2-0.9-0.8-1.3-1.3c-13.7-18.5-27.4-37-41.1-55.5
		c-1.3-1.8-1.3-1.8-2.6,0c-34.9,49.8-69.8,99.7-104.8,149.5c-1.4,1.9-1.4,1.9-2.8,0c-35.5-50.6-71-101.3-106.4-151.9
		c-0.4-0.5-0.7-1-1.2-1.8c-15.1,20.5-30.2,40.8-45.4,61.4c-0.8-3.2-1.5-6.1-2.2-9c-10-42.7-20.1-85.4-30.1-128.1
		c-0.3-1.3-0.9-2.4-1.4-3.6c-6.4-13.2-9.6-27-9.3-41.7c0.2-7,1.2-13.9,3-20.7c0.1-0.4,0.2-0.8,0.3-1.3c0.1-0.2,0.3-0.5,0.3-0.7
		c4.7-15.9,13.2-29.6,24.2-41.8c13.6-14.9,29.8-26.4,47.6-35.6c30-15.4,62-23.4,95.4-26.3c17.3-1.5,34.6-1.4,51.9,0.2
		c18.9,1.7,37.5,5.2,55.7,10.9c24.5,7.6,47.4,18.5,67.6,34.5c13.4,10.6,24.7,23,33.2,37.9C480.9,447.5,484.1,455.9,486.3,464.8z"/>
	<path class="st1" d="M486.3,464.8c-2.2-8.8-5.4-17.3-9.9-25.2c-8.4-14.9-19.8-27.3-33.2-37.9c-20.2-16-43.1-26.9-67.6-34.5
		c-18.2-5.6-36.7-9.1-55.7-10.9c-17.3-1.6-34.6-1.7-51.9-0.2c-33.4,2.9-65.5,10.9-95.4,26.3c-17.9,9.2-34.1,20.7-47.6,35.6
		c-11.1,12.2-19.5,25.9-24.2,41.8c-0.1,0.3-0.2,0.5-0.3,0.7c-2-4.6-3.4-9.4-4.9-14.1c-5.5-17.9-9.4-36.2-11.5-54.8
		c-0.3-2.6-0.3-2.6-2.8-2.6c-12.6-0.1-23.4-4.8-32.7-13c-12.7-11.2-19.9-25.5-22.9-42c-3.8-21-0.6-40.9,10.8-59.2
		c7-11.2,16.4-19.6,28.9-24.2c10.6-3.9,21.4-4,32.1-0.4c2.2,0.7,2.2,0.7,3-1.4c6.4-17.3,14.3-33.9,24-49.6c0.3-0.5,0.6-1,0.9-1.5
		c6.2,11.2,12.4,22.4,18.6,33.6c1.1,1.9,1.1,1.9,3,0.8c43.7-25.2,87.4-50.4,131.1-75.7c0.4-0.3,1-0.4,1.3-1
		c-0.6-0.3-1.3-0.2-1.9-0.2c-38.8,0-77.7,0-116.5,0c-0.7,0-1.4,0-2.1,0c6.4-6.6,13.2-12.6,20.4-18.3c18.3-14.4,38.4-25.6,60.6-32.7
		c15-4.8,30.3-7.6,46-8.3c36.8-1.7,70.7,7.6,102.2,26.4c14.7,8.8,27.9,19.4,40,31.4c0.5,0.5,1,1,1.4,1.5c-0.7,0-1.4,0-2.1,0
		c-39.7,0-79.4,0-119.1,0c-0.6,0-1.2,0-1.9,0c0.2,0.7,0.7,0.8,1.1,1c44,25.4,87.9,50.7,131.9,76.1c1.2,0.7,1.7,0.4,2.3-0.7
		c3.7-6.8,7.4-13.5,11.1-20.3c2.9-5.3,5.9-10.5,8.8-15.8c3.8,5.5,7,11.4,10.2,17.2c6.3,11.7,11.7,23.9,16.3,36.4
		c0.5,1.3,1,1.7,2.4,1.2c19.5-6.3,36.6-1.7,51.3,12c12.3,11.4,18.8,26,21.4,42.4c2.7,17.2,0.6,33.9-7.1,49.7
		c-6.9,14.2-17.1,25.2-32,31.2c-5.4,2.2-11,3.3-16.8,3.3c-2.6,0-2.6,0-2.9,2.7c-1.6,13.9-4.1,27.6-7.6,41.1
		c-2.7,10.4-5.9,20.7-9.7,30.7C486.7,463.9,486.5,464.3,486.3,464.8z M400.3,245.8c0-12.2-9.7-21.9-21.7-22
		c-12.3,0-22.1,9.7-22.1,21.9c0,12.2,9.7,22,21.9,22C390.6,267.7,400.3,258,400.3,245.8z M211.5,267.7c6-0.3,12.7-4.3,16.7-12.3
		c5.6-11.1,0.9-22.7-10.6-26.8c-6.1-2.1-12.3-2.1-18.4,0c-5.9,2.1-10.4,5.8-12,12.1C183.6,254.3,194.5,267.9,211.5,267.7z"/>
	<path class="st0" d="M158.8,155.1c0.7,0,1.4,0,2.1,0c38.8,0,77.7,0,116.5,0c0.6,0,1.3-0.2,1.9,0.2c-0.2,0.6-0.8,0.7-1.3,1
		c-43.7,25.2-87.4,50.5-131.1,75.7c-1.9,1.1-1.9,1.1-3-0.8c-6.2-11.2-12.4-22.4-18.6-33.6c-6.6-12.1-13.3-24.1-19.9-36.2
		c-1.1-2-2.2-4-3.4-6.2c0.9,0,1.5,0,2,0c17.6,0,35.2,0,52.8,0C157.5,155.2,158.1,155.1,158.8,155.1z"/>
	<path class="st0" d="M461.5,195.5c-2.9,5.3-5.9,10.5-8.8,15.8c-3.7,6.7-7.5,13.5-11.1,20.3c-0.6,1.1-1.1,1.4-2.3,0.7
		c-43.9-25.4-87.9-50.7-131.9-76.1c-0.4-0.2-0.8-0.3-1.1-1c0.7,0,1.3,0,1.9,0c39.7,0,79.4,0,119.1,0c0.7,0,1.4,0,2.1,0
		c10.7,0,21.4,0,32.1,0c6.7,0,13.4,0,20,0c0.6,0,1.2,0,1.8,0c0.1,0.7-0.3,1.1-0.6,1.6c-6.8,12.4-13.7,24.8-20.5,37.2
		C462,194.5,461.7,195,461.5,195.5z"/>
	<path d="M400.3,245.8c0,12.2-9.7,21.9-21.9,21.9c-12.2,0-21.9-9.8-21.9-22c0-12.2,9.8-21.9,22.1-21.9
		C390.6,223.9,400.3,233.7,400.3,245.8z"/>
	<path d="M211.5,267.7c-17.1,0.2-27.9-13.3-24.2-27c1.7-6.3,6.2-10,12-12.1c6.1-2.2,12.3-2.2,18.4,0c11.5,4.1,16.1,15.6,10.6,26.8
		C224.2,263.4,217.5,267.4,211.5,267.7z"/>
</g>
</svg>
