<?xml version="1.0" encoding="utf-8"?>
<!-- Generator: Adobe Illustrator 20.1.0, SVG Export Plug-In . SVG Version: 6.00 Build 0)  -->
<svg version="1.1" id="Ebene_1" xmlns="http://www.w3.org/2000/svg" xmlns:xlink="http://www.w3.org/1999/xlink" x="0px" y="0px"
	 viewBox="0 0 595.3 841.9" style="enable-background:new 0 0 595.3 841.9;" xml:space="preserve">
<style type="text/css">
	.st0{fill:#976B3A;}
	.st1{fill:#644F39;}
	.st2{fill:#C93E3E;}
	.st3{fill:#CA3D3E;}
	.st4{fill:#654F39;}
	.st5{fill:#882929;}
	.st6{fill:#423426;}
</style>
<g>
	<path class="st0" d="M299,472c-15.6,0-31.3,0-46.9,0.1c-2.3,0-3.1-0.3-3.1-3c0.1-31.5,0.1-62.9,0-94.4c0-2.5,0.7-2.7,2.9-2.7
		c31.5,0.1,62.9,0.1,94.4,0c2.2,0,2.9,0.2,2.9,2.7c-0.1,31.6-0.1,63.2,0,94.9c0,2.2-0.6,2.5-2.6,2.5C330.6,471.9,314.8,472,299,472z
		 M281,382.2c-5.5,0-11,0-16.4-0.2c-4.1-0.1-5.6,1.6-5.6,5.7c0.1,9.8,0,19.6,0,29.4c0,13.1,0,26.2,0,39.4c0,2.8,0,5.6,4,5.4
		c6,0,12,0,18,0c6.4,0,12.8,0,19.2,0c0.6,0,1.2,0,1.8,0c10.3,0,20.6-0.1,30.9,0.1c4.5,0.1,6.2-1.8,6.1-6.2
		c-0.2-23.6-0.1-47.2-0.2-70.9c0.1-3-2.1-2.9-4.1-2.9C316.8,382.1,298.9,382.1,281,382.2z"/>
	<path class="st1" d="M338.8,384.9c0,23.6,0,47.2,0.2,70.9c0,4.4-1.6,6.3-6.1,6.2c-10.3-0.2-20.6-0.1-30.9-0.1c4.4-2,9.2-2.8,13.9-4
		c3.1-0.8,4-2.1,3.1-5.3c-5.8-20.9-11.5-41.8-17-62.7c-0.9-3.2-2.5-3.7-5.4-2.9c-5.1,1.4-10.3,2.6-15.5,3.9
		c-0.1-1.9-0.1-3.9-0.2-5.8l0.4-0.2C300.4,384.9,319.6,384.9,338.8,384.9z"/>
	<path class="st2" d="M281,390.9c5.2-1.3,10.4-2.4,15.5-3.9c2.9-0.8,4.5-0.3,5.4,2.9c5.6,20.9,11.3,41.8,17,62.7
		c0.9,3.2,0,4.5-3.1,5.3c-4.7,1.2-9.5,2-13.9,4c-0.6,0-1.2,0-1.8,0c-3.4-12.5-6.7-25.1-10.2-37.6c-2.9-10.4-5-21-8.9-31.1
		C281.1,392.5,281,391.7,281,390.9z"/>
	<path class="st3" d="M281,390.9c0,0.8,0,1.5,0.1,2.3c0,22.9-0.1,45.8-0.1,68.7c-6,0-12,0-18,0c0-5.7,0-11.3,0-17
		c0-18.1,0.1-36.2,0-54.3c0-3.5,0.7-5.8,4.9-5.6c4.3,0.2,8.6,0.1,13,0.1C280.9,387.1,281,389,281,390.9z"/>
	<path class="st4" d="M281,461.9c0-22.9,0.1-45.8,0.1-68.7c3.9,10.1,6,20.7,8.9,31.1c3.5,12.5,6.8,25,10.2,37.6
		C293.8,461.9,287.4,461.9,281,461.9z"/>
	<path class="st5" d="M280.9,385.1c-4.3,0-8.6,0.1-13-0.1c-4.2-0.2-4.9,2-4.9,5.6c0.1,18.1,0,36.2,0,54.3c0,5.7,0,11.3,0,17
		c-4,0.2-4-2.7-4-5.4c0-13.1,0-26.2,0-39.4c0-9.8,0.1-19.6,0-29.4c-0.1-4,1.5-5.8,5.6-5.7c5.5,0.2,11,0.1,16.4,0.2
		c0.1,0.9,0.2,1.8,0.2,2.7L280.9,385.1z"/>
	<path class="st6" d="M281.2,384.9c-0.1-0.9-0.2-1.8-0.2-2.7c17.9,0,35.8-0.1,53.7-0.1c2,0,4.2-0.2,4.1,2.9
		C319.6,384.9,300.4,384.9,281.2,384.9z"/>
</g>
</svg>
